<?xml version="1.0" encoding="UTF-8" standalone="no"?>
<!-- Created with Inkscape (http://www.inkscape.org/) -->

<svg
   width="1147.0635"
   height="419.22952"
   viewBox="0 0 1147.0635 419.22952"
   version="1.1"
   id="svg1"
   xmlns="http://www.w3.org/2000/svg"
   xmlns:svg="http://www.w3.org/2000/svg">
  <defs
     id="defs1">
    <rect
       x="532.21051"
       y="176.84212"
       width="704"
       height="365.47369"
       id="rect1" />
  </defs>
  <g
     id="layer1"
     transform="translate(-75.947363,-150.38522)">
    <g
       transform="matrix(0.04708211,0,0,-0.04708211,73.481569,585.8581)"
       fill="#000000"
       stroke="none"
       id="g11"
       style="fill:#13453e;fill-opacity:1">
      <path
         d="m 1040,9239 c -239,-61 -385,-174 -477,-369 -62,-133 -58,25 -58,-2137 0,-1572 3,-1985 12,-1995 7,-6 13,-21 13,-33 0,-22 51,-127 91,-190 77,-117 240,-231 391,-272 58,-16 175,-18 1388,-23 l 1325,-5 3,-1753 c 1,-963 -1,-1752 -5,-1752 -121,-5 -538,1 -545,8 -15,15 -6,1318 9,1333 10,10 23,10 60,1 39,-10 56,-9 88,2 56,20 102,76 110,134 10,76 -21,134 -110,205 -51,41 -180,153 -260,226 -22,20 -69,61 -105,91 -36,30 -88,77 -116,103 -28,26 -66,59 -84,72 -18,13 -58,48 -89,77 -53,50 -240,214 -306,269 -16,13 -57,49 -90,79 -33,31 -89,80 -125,110 -35,30 -76,66 -90,79 -66,61 -193,153 -232,167 -23,8 -57,13 -75,10 -36,-5 -133,-51 -148,-69 -5,-7 -41,-36 -79,-66 -38,-29 -78,-61 -90,-71 -11,-10 -106,-89 -211,-176 -104,-86 -192,-160 -195,-163 -3,-3 -21,-18 -40,-32 -19,-15 -46,-37 -60,-50 -14,-13 -46,-39 -70,-58 -25,-19 -68,-55 -95,-80 -28,-25 -75,-66 -105,-91 -30,-25 -100,-83 -155,-130 -55,-47 -113,-96 -130,-109 -16,-12 -47,-38 -68,-58 -21,-19 -66,-57 -100,-86 -99,-82 -131,-119 -151,-175 -18,-51 -18,-55 -1,-100 23,-61 41,-81 93,-103 59,-26 89,-24 134,7 21,15 41,25 43,22 3,-3 6,-367 8,-809 l 2,-804 23,-36 c 12,-20 39,-50 60,-65 l 37,-29 h 3785 3785 l 35,22 c 44,28 75,68 83,108 5,28 22,1412 19,1537 -2,64 8,76 40,54 47,-33 143,-17 193,31 34,33 35,35 35,114 v 81 l -57,57 c -32,31 -89,82 -128,113 -38,30 -81,66 -95,80 -14,13 -45,39 -70,58 -25,19 -56,45 -70,58 -14,14 -54,48 -90,77 -36,29 -76,63 -90,76 -14,13 -46,40 -70,59 -25,18 -61,48 -81,65 -19,16 -46,39 -60,50 -112,91 -178,147 -193,160 -10,10 -104,86 -196,160 -69,55 -135,109 -200,165 -236,201 -286,226 -383,194 -48,-15 -176,-109 -262,-191 -16,-16 -59,-53 -95,-83 -36,-30 -87,-76 -115,-101 -27,-26 -72,-66 -100,-89 -27,-24 -81,-71 -120,-106 -38,-34 -107,-95 -153,-136 -46,-40 -114,-100 -151,-133 -37,-33 -105,-93 -152,-134 -46,-41 -106,-95 -134,-120 -27,-26 -66,-59 -85,-75 -87,-71 -176,-154 -202,-190 -23,-32 -28,-49 -28,-97 0,-49 4,-63 33,-100 39,-52 112,-78 163,-60 70,25 64,85 64,-663 0,-530 -3,-675 -12,-679 -28,-10 -478,-8 -498,3 -20,11 -20,13 -20,1760 v 1750 h 1326 c 780,0 1342,4 1363,9 108,28 131,35 180,59 30,14 74,38 96,53 55,37 167,156 200,214 37,61 71,167 79,239 9,78 8,3843 -1,3915 -3,30 -12,66 -20,80 -7,15 -13,32 -13,40 0,7 -15,41 -32,75 -48,90 -184,222 -273,265 -38,19 -78,38 -88,43 -9,4 -52,15 -95,23 -67,13 -489,15 -3257,14 -1843,0 -3195,-5 -3215,-10 z m 6401,-383 c 14,-7 37,-16 51,-19 39,-10 126,-94 154,-148 l 24,-48 V 6746 4851 l -26,-56 c -30,-64 -106,-137 -174,-169 l -45,-21 H 4265 1105 l -44,24 c -87,48 -146,124 -180,232 -16,52 -16,3715 1,3773 6,22 17,48 25,57 7,8 13,20 13,26 0,17 75,86 111,104 108,52 -151,48 3244,48 2605,1 3144,-1 3166,-13 z M 4434,4204 c 11,-29 7,-3464 -4,-3485 -10,-17 -23,-19 -165,-19 -84,0 -160,3 -169,6 -15,6 -16,169 -16,1753 0,961 3,1751 7,1754 3,4 82,7 174,7 143,0 168,-2 173,-16 z M 6880,3160 c 80,-66 181,-151 224,-188 44,-37 92,-76 106,-87 15,-11 53,-43 86,-71 32,-29 97,-84 144,-123 131,-111 270,-231 323,-281 l 48,-45 v -824 c -1,-634 -4,-826 -13,-832 -14,-9 -2100,-12 -2122,-3 -14,6 -16,92 -16,829 v 822 l 53,44 c 28,24 77,66 107,94 31,27 84,75 119,105 35,30 71,62 80,71 9,8 45,40 81,70 36,30 87,75 115,100 27,26 79,70 115,99 36,29 70,58 75,64 6,6 75,68 155,136 80,69 147,128 148,132 8,19 36,1 172,-112 z m -5054,72 c 77,-69 167,-147 194,-167 14,-11 45,-37 67,-58 23,-21 54,-48 70,-60 16,-12 56,-45 89,-74 32,-28 120,-105 194,-170 75,-65 174,-151 220,-192 47,-40 99,-85 116,-100 17,-15 36,-36 42,-47 17,-32 17,-1640 0,-1651 -14,-8 -2096,-6 -2110,3 -4,3 -8,377 -8,832 v 827 l 70,60 c 39,33 99,85 134,115 36,30 104,89 153,130 48,41 99,84 113,96 46,40 186,158 289,243 57,46 108,89 114,95 7,6 35,29 62,51 28,22 67,54 88,72 20,18 43,33 50,33 6,0 31,-17 53,-38 z"
         id="path1"
         style="fill:#13453e;fill-opacity:1" />
      <path
         d="m 1735,8223 c -47,-24 -85,-64 -106,-112 -18,-42 -19,-80 -19,-1382 V 5391 l 21,-41 c 30,-57 73,-97 117,-110 49,-13 2070,-14 2106,0 41,15 85,61 106,108 20,43 20,76 20,1382 0,1201 -2,1342 -16,1376 -20,49 -58,90 -106,115 -36,18 -73,19 -1065,19 -917,-1 -1031,-3 -1058,-17 z M 3620,6715 c 0,-917 -3,-1155 -12,-1155 -195,-2 -1633,1 -1635,3 -8,9 -28,2269 -20,2291 6,15 78,16 837,16 h 830 z"
         id="path2"
         style="fill:#13453e;fill-opacity:1" />
      <path
         d="m 2337,7539 -37,-30 v -213 -212 l 34,-33 33,-32 h 203 203 l 30,29 29,30 3,203 c 4,296 11,288 -265,289 h -195 z"
         id="path3"
         style="fill:#13453e;fill-opacity:1" />
      <path
         d="m 2365,6731 c -47,-28 -65,-63 -65,-126 0,-49 4,-59 36,-95 l 36,-40 h 421 420 l 33,25 c 44,34 67,100 50,149 -7,19 -21,45 -32,57 -44,49 -47,49 -471,49 -370,0 -400,-1 -428,-19 z"
         id="path4"
         style="fill:#13453e;fill-opacity:1" />
      <path
         d="m 2383,6173 c -13,-2 -36,-21 -53,-41 -56,-68 -35,-178 42,-218 21,-11 84,-14 293,-14 293,0 295,0 335,65 41,67 10,180 -56,206 -24,9 -516,11 -561,2 z"
         id="path5"
         style="fill:#13453e;fill-opacity:1" />
      <path
         d="m 4675,8223 c -45,-23 -85,-64 -101,-102 -22,-51 -21,-2722 1,-2774 21,-50 89,-105 139,-112 22,-3 525,-5 1118,-3 l 1076,3 44,30 c 23,17 52,49 63,70 20,39 20,60 20,1400 0,1261 -1,1362 -17,1391 -20,37 -80,92 -115,105 -14,5 -462,9 -1111,9 -971,-1 -1090,-2 -1117,-17 z m 2000,-362 c 4,-7 8,-1764 5,-2289 0,-10 -181,-12 -887,-10 l -888,3 -3,1140 c -1,627 0,1146 3,1153 3,9 190,12 884,12 528,0 882,-4 886,-9 z"
         id="path6"
         style="fill:#13453e;fill-opacity:1" />
      <path
         d="m 5301,7554 c -43,-31 -51,-70 -51,-262 0,-99 5,-192 10,-208 22,-59 37,-63 261,-65 180,-2 208,0 231,15 35,23 41,69 36,305 l -3,183 -30,24 c -29,23 -34,24 -230,24 -169,0 -204,-3 -224,-16 z"
         id="path7"
         style="fill:#13453e;fill-opacity:1" />
      <path
         d="m 5315,6741 c -49,-20 -90,-101 -79,-157 4,-21 22,-52 44,-75 l 37,-39 h 466 c 523,0 507,-2 548,74 35,66 16,142 -45,184 -32,22 -33,22 -492,21 -252,0 -468,-4 -479,-8 z"
         id="path8"
         style="fill:#13453e;fill-opacity:1" />
      <path
         d="m 5325,6173 c -74,-19 -110,-135 -65,-208 40,-65 39,-65 535,-65 437,0 448,0 482,21 37,23 73,84 73,123 0,36 -27,88 -58,111 -26,19 -44,20 -487,22 -253,0 -469,-1 -480,-4 z"
         id="path9"
         style="fill:#13453e;fill-opacity:1" />
      <path
         d="m 6404,2000 c -12,-4 -31,-21 -43,-36 -21,-27 -22,-32 -19,-367 l 3,-339 40,-34 40,-34 h 307 306 l 44,33 43,33 3,332 c 2,287 0,337 -14,363 -28,56 -52,59 -386,58 -167,0 -313,-4 -324,-9 z"
         id="path10"
         style="fill:#13453e;fill-opacity:1" />
      <path
         d="m 1440,2003 c -8,-3 -27,-17 -42,-31 l -28,-26 v -348 -348 l 42,-30 41,-30 h 294 c 250,0 299,2 326,16 68,34 67,23 67,396 v 338 l -29,32 -29,33 -314,2 c -172,1 -320,-1 -328,-4 z"
         id="path11"
         style="fill:#13453e;fill-opacity:1" />
    </g>
    <text
       xml:space="preserve"
       id="text1"
       style="font-size:160px;line-height:1.2;font-family:'Madimi One';-inkscape-font-specification:'Madimi One';text-align:center;letter-spacing:0px;word-spacing:0px;writing-mode:lr-tb;direction:ltr;white-space:pre;shape-inside:url(#rect1);fill:#13453e;fill-opacity:1;stroke:#79b6fe;stroke-width:5;stroke-linecap:square;paint-order:stroke markers fill"
       x="675.51971"
       y="0"
       transform="translate(0,9.0539569)"><tspan
         x="539.81107"
         y="315.26604"
         id="tspan3"><tspan
           style="stroke:none"
           id="tspan2">Sąsiedzka
</tspan></tspan><tspan
         x="645.89078"
         y="507.26604"
         id="tspan5"><tspan
           style="stroke:none"
           id="tspan4">Tablica</tspan></tspan></text>
  </g>
</svg>
